<?xml version="1.0" encoding="UTF-8" standalone="yes"?><svg xmlns="http://www.w3.org/2000/svg" xmlns:xlink="http://www.w3.org/1999/xlink" height="184pt" style="width:589px;height:184px;" version="1.1" viewBox="0 0 589 184" width="589pt"><defs><filter height="300%" id="f1" width="300%" x="-1" y="-1"><feGaussianBlur result="blurOut" stdDeviation="2.0"/><feColorMatrix in="blurOut" result="blurOut2" type="matrix" values="0 0 0 0 0 0 0 0 0 0 0 0 0 0 0 0 0 0 .4 0"/><feOffset dx="4.0" dy="4.0" in="blurOut2" result="blurOut3"/><feBlend in="SourceGraphic" in2="blurOut3" mode="normal"/></filter></defs><g><rect fill="#FEFECE" filter="url(#f1)" height="36.2969" style="stroke: #A80036; stroke-width: 1.5;" width="87" x="404.75" y="8"/><rect fill="#FEFECE" height="5" style="stroke: #A80036; stroke-width: 1.5;" width="10" x="399.75" y="13"/><rect fill="#FEFECE" height="5" style="stroke: #A80036; stroke-width: 1.5;" width="10" x="399.75" y="34.2969"/><text fill="#000000" font-family="sans-serif" font-size="14" lengthAdjust="spacingAndGlyphs" textLength="67" x="414.75" y="30.9951">extract.py</text><rect fill="#FEFECE" filter="url(#f1)" height="36.2969" style="stroke: #A80036; stroke-width: 1.5;" width="87" x="281.75" y="8"/><rect fill="#FEFECE" height="5" style="stroke: #A80036; stroke-width: 1.5;" width="10" x="276.75" y="13"/><rect fill="#FEFECE" height="5" style="stroke: #A80036; stroke-width: 1.5;" width="10" x="276.75" y="34.2969"/><text fill="#000000" font-family="sans-serif" font-size="14" lengthAdjust="spacingAndGlyphs" textLength="67" x="291.75" y="30.9951">persist.py</text><rect fill="#FEFECE" filter="url(#f1)" height="36.2969" style="stroke: #A80036; stroke-width: 1.5;" width="92" x="152" y="8"/><rect fill="#FEFECE" height="5" style="stroke: #A80036; stroke-width: 1.5;" width="10" x="147" y="13"/><rect fill="#FEFECE" height="5" style="stroke: #A80036; stroke-width: 1.5;" width="10" x="147" y="34.2969"/><text fill="#000000" font-family="sans-serif" font-size="14" lengthAdjust="spacingAndGlyphs" textLength="72" x="162" y="30.9951">retrieve.py</text><rect fill="#FEFECE" filter="url(#f1)" height="36.2969" style="stroke: #A80036; stroke-width: 1.5;" width="66" x="38" y="8"/><rect fill="#FEFECE" height="5" style="stroke: #A80036; stroke-width: 1.5;" width="10" x="33" y="13"/><rect fill="#FEFECE" height="5" style="stroke: #A80036; stroke-width: 1.5;" width="10" x="33" y="34.2969"/><text fill="#000000" font-family="sans-serif" font-size="14" lengthAdjust="spacingAndGlyphs" textLength="46" x="48" y="30.9951">ui.html</text><path d="M205.75,138.5 C205.75,128.5 238.25,128.5 238.25,128.5 C238.25,128.5 270.75,128.5 270.75,138.5 L270.75,159.7969 C270.75,169.7969 238.25,169.7969 238.25,169.7969 C238.25,169.7969 205.75,169.7969 205.75,159.7969 L205.75,138.5 " fill="#FEFECE" filter="url(#f1)" style="stroke: #A80036; stroke-width: 1.5;"/><path d="M205.75,138.5 C205.75,148.5 238.25,148.5 238.25,148.5 C238.25,148.5 270.75,148.5 270.75,138.5 " fill="none" style="stroke: #A80036; stroke-width: 1.5;"/><text fill="#000000" font-family="sans-serif" font-size="14" lengthAdjust="spacingAndGlyphs" textLength="45" x="215.75" y="161.4951">shelve</text><rect fill="#BDB76B" filter="url(#f1)" height="52.5938" style="stroke: #A80036; stroke-width: 1.5;" width="119" x="461.75" y="122.5"/><rect fill="#BDB76B" height="5" style="stroke: #A80036; stroke-width: 1.5;" width="10" x="456.75" y="127.5"/><rect fill="#BDB76B" height="5" style="stroke: #A80036; stroke-width: 1.5;" width="10" x="456.75" y="165.0938"/><text fill="#000000" font-family="sans-serif" font-size="14" font-style="italic" lengthAdjust="spacingAndGlyphs" textLength="99" x="471.75" y="145.4951">&lt;&lt;dataset&gt;&gt;</text><text fill="#000000" font-family="sans-serif" font-size="14" lengthAdjust="spacingAndGlyphs" textLength="51" x="495.75" y="161.792">CSV file</text><rect fill="#BDB76B" filter="url(#f1)" height="52.5938" style="stroke: #A80036; stroke-width: 1.5;" width="119" x="306.75" y="122.5"/><rect fill="#BDB76B" height="5" style="stroke: #A80036; stroke-width: 1.5;" width="10" x="301.75" y="127.5"/><rect fill="#BDB76B" height="5" style="stroke: #A80036; stroke-width: 1.5;" width="10" x="301.75" y="165.0938"/><text fill="#000000" font-family="sans-serif" font-size="14" font-style="italic" lengthAdjust="spacingAndGlyphs" textLength="99" x="316.75" y="145.4951">&lt;&lt;dataset&gt;&gt;</text><text fill="#000000" font-family="sans-serif" font-size="14" lengthAdjust="spacingAndGlyphs" textLength="79" x="326.75" y="161.792">JSON-LD file</text><rect fill="#BDB76B" filter="url(#f1)" height="52.5938" style="stroke: #A80036; stroke-width: 1.5;" width="152" x="6" y="122.5"/><rect fill="#BDB76B" height="5" style="stroke: #A80036; stroke-width: 1.5;" width="10" x="1" y="127.5"/><rect fill="#BDB76B" height="5" style="stroke: #A80036; stroke-width: 1.5;" width="10" x="1" y="165.0938"/><text fill="#000000" font-family="sans-serif" font-size="14" font-style="italic" lengthAdjust="spacingAndGlyphs" textLength="99" x="32.5" y="145.4951">&lt;&lt;dataset&gt;&gt;</text><text fill="#000000" font-family="sans-serif" font-size="14" lengthAdjust="spacingAndGlyphs" textLength="132" x="16" y="161.792">Aggregate JSON-LD</text><path d="M461.194,44.007 C467.756,52.764 475.625,63.733 482,74 C490.672,87.9664 499.3,104.051 506.228,117.6493 " fill="none" style="stroke: #A80036; stroke-width: 1.0; stroke-dasharray: 7.0,7.0;"/><polygon fill="#A80036" points="508.51,122.159,508.0158,112.3226,506.2526,117.6976,500.8775,115.9344,508.51,122.159" style="stroke: #A80036; stroke-width: 1.0;"/><text fill="#000000" font-family="sans-serif" font-size="13" lengthAdjust="spacingAndGlyphs" textLength="23" x="494" y="87.0669">use</text><path d="M436.425,44.08 C423.458,63.214 402.192,94.5944 386.416,117.8736 " fill="none" style="stroke: #A80036; stroke-width: 1.0; stroke-dasharray: 7.0,7.0;"/><polygon fill="#A80036" points="383.538,122.1213,391.8986,116.9154,386.3432,117.9824,385.2763,112.4271,383.538,122.1213" style="stroke: #A80036; stroke-width: 1.0;"/><text fill="#000000" font-family="sans-serif" font-size="13" lengthAdjust="spacingAndGlyphs" textLength="41" x="416" y="87.0669">create</text><path d="M325.604,44.244 C326.493,57.587 328.673,76.3636 334,92 C337.016,100.8537 341.471,109.8918 346.105,118.0513 " fill="none" style="stroke: #A80036; stroke-width: 1.0; stroke-dasharray: 7.0,7.0;"/><polygon fill="#A80036" points="348.689,122.4872,347.6141,112.6972,346.1718,118.1671,340.7019,116.7247,348.689,122.4872" style="stroke: #A80036; stroke-width: 1.0;"/><text fill="#000000" font-family="sans-serif" font-size="13" lengthAdjust="spacingAndGlyphs" textLength="57" x="335" y="87.0669">HTTP get</text><path d="M312.72,44.08 C297.727,64.931 272.278,100.3254 255.306,123.9307 " fill="none" style="stroke: #A80036; stroke-width: 1.0;"/><polygon fill="#A80036" points="252.24,128.195,260.7415,123.2226,255.1588,124.1353,254.246,118.5526,252.24,128.195" style="stroke: #A80036; stroke-width: 1.0;"/><path d="M204.988,44.294 C208.463,53.124 212.629,64.072 216,74 C221.527,90.2764 227.038,108.817 231.161,123.2681 " fill="none" style="stroke: #A80036; stroke-width: 1.0;"/><polygon fill="#A80036" points="232.615,128.3954,234.0076,118.6455,231.2508,123.5851,226.3112,120.8283,232.615,128.3954" style="stroke: #A80036; stroke-width: 1.0;"/><path d="M181.626,44.08 C163.13,63.373 132.699,95.116 110.327,118.4515 " fill="none" style="stroke: #A80036; stroke-width: 1.0; stroke-dasharray: 7.0,7.0;"/><polygon fill="#A80036" points="106.809,122.1213,115.9245,118.392,110.2689,118.5117,110.1491,112.8561,106.809,122.1213" style="stroke: #A80036; stroke-width: 1.0;"/><text fill="#000000" font-family="sans-serif" font-size="13" lengthAdjust="spacingAndGlyphs" textLength="41" x="152" y="87.0669">create</text><path d="M69.6243,44.397 C68.9914,53.253 68.3127,64.193 68,74 C67.7451,81.9959 67.0225,84.0599 68,92 C69.0241,100.3192 70.8735,109.1801 72.8996,117.3407 " fill="none" style="stroke: #A80036; stroke-width: 1.0;"/><polygon fill="#A80036" points="74.1781,122.3202,75.814,112.6082,72.9346,117.4773,68.0654,114.5978,74.1781,122.3202" style="stroke: #A80036; stroke-width: 1.0;"/><text fill="#000000" font-family="sans-serif" font-size="13" lengthAdjust="spacingAndGlyphs" textLength="57" x="69" y="87.0669">HTTP get</text></g></svg>