<?xml version="1.0" encoding="UTF-8" standalone="yes"?><svg xmlns="http://www.w3.org/2000/svg" xmlns:xlink="http://www.w3.org/1999/xlink" height="184pt" style="width:773px;height:184px;" version="1.1" viewBox="0 0 773 184" width="773pt"><defs><filter height="300%" id="f1" width="300%" x="-1" y="-1"><feGaussianBlur result="blurOut" stdDeviation="2.0"/><feColorMatrix in="blurOut" result="blurOut2" type="matrix" values="0 0 0 0 0 0 0 0 0 0 0 0 0 0 0 0 0 0 .4 0"/><feOffset dx="4.0" dy="4.0" in="blurOut2" result="blurOut3"/><feBlend in="SourceGraphic" in2="blurOut3" mode="normal"/></filter></defs><g><rect fill="#FEFECE" filter="url(#f1)" height="36.2969" style="stroke: #A80036; stroke-width: 1.5;" width="87" x="487.75" y="8"/><rect fill="#FEFECE" height="5" style="stroke: #A80036; stroke-width: 1.5;" width="10" x="482.75" y="13"/><rect fill="#FEFECE" height="5" style="stroke: #A80036; stroke-width: 1.5;" width="10" x="482.75" y="34.2969"/><text fill="#000000" font-family="sans-serif" font-size="14" lengthAdjust="spacingAndGlyphs" textLength="67" x="497.75" y="30.9951">extract.py</text><rect fill="#FEFECE" filter="url(#f1)" height="36.2969" style="stroke: #A80036; stroke-width: 1.5;" width="87" x="289.75" y="8"/><rect fill="#FEFECE" height="5" style="stroke: #A80036; stroke-width: 1.5;" width="10" x="284.75" y="13"/><rect fill="#FEFECE" height="5" style="stroke: #A80036; stroke-width: 1.5;" width="10" x="284.75" y="34.2969"/><text fill="#000000" font-family="sans-serif" font-size="14" lengthAdjust="spacingAndGlyphs" textLength="67" x="299.75" y="30.9951">persist.py</text><rect fill="#FEFECE" filter="url(#f1)" height="36.2969" style="stroke: #A80036; stroke-width: 1.5;" width="92" x="41" y="8"/><rect fill="#FEFECE" height="5" style="stroke: #A80036; stroke-width: 1.5;" width="10" x="36" y="13"/><rect fill="#FEFECE" height="5" style="stroke: #A80036; stroke-width: 1.5;" width="10" x="36" y="34.2969"/><text fill="#000000" font-family="sans-serif" font-size="14" lengthAdjust="spacingAndGlyphs" textLength="72" x="51" y="30.9951">retrieve.py</text><rect fill="#FEFECE" filter="url(#f1)" height="36.2969" style="stroke: #A80036; stroke-width: 1.5;" width="66" x="173" y="8"/><rect fill="#FEFECE" height="5" style="stroke: #A80036; stroke-width: 1.5;" width="10" x="168" y="13"/><rect fill="#FEFECE" height="5" style="stroke: #A80036; stroke-width: 1.5;" width="10" x="168" y="34.2969"/><text fill="#000000" font-family="sans-serif" font-size="14" lengthAdjust="spacingAndGlyphs" textLength="46" x="183" y="30.9951">ui.html</text><path d="M194.75,138.5 C194.75,128.5 227.25,128.5 227.25,128.5 C227.25,128.5 259.75,128.5 259.75,138.5 L259.75,159.7969 C259.75,169.7969 227.25,169.7969 227.25,169.7969 C227.25,169.7969 194.75,169.7969 194.75,159.7969 L194.75,138.5 " fill="#FEFECE" filter="url(#f1)" style="stroke: #A80036; stroke-width: 1.5;"/><path d="M194.75,138.5 C194.75,148.5 227.25,148.5 227.25,148.5 C227.25,148.5 259.75,148.5 259.75,138.5 " fill="none" style="stroke: #A80036; stroke-width: 1.5;"/><text fill="#000000" font-family="sans-serif" font-size="14" lengthAdjust="spacingAndGlyphs" textLength="45" x="204.75" y="161.4951">shelve</text><rect fill="#BDB76B" filter="url(#f1)" height="52.5938" style="stroke: #A80036; stroke-width: 1.5;" width="119" x="645.75" y="122.5"/><rect fill="#BDB76B" height="5" style="stroke: #A80036; stroke-width: 1.5;" width="10" x="640.75" y="127.5"/><rect fill="#BDB76B" height="5" style="stroke: #A80036; stroke-width: 1.5;" width="10" x="640.75" y="165.0938"/><text fill="#000000" font-family="sans-serif" font-size="14" font-style="italic" lengthAdjust="spacingAndGlyphs" textLength="99" x="655.75" y="145.4951">&lt;&lt;dataset&gt;&gt;</text><text fill="#000000" font-family="sans-serif" font-size="14" lengthAdjust="spacingAndGlyphs" textLength="51" x="679.75" y="161.792">CSV file</text><rect fill="#BDB76B" filter="url(#f1)" height="52.5938" style="stroke: #A80036; stroke-width: 1.5;" width="119" x="296.75" y="122.5"/><rect fill="#BDB76B" height="5" style="stroke: #A80036; stroke-width: 1.5;" width="10" x="291.75" y="127.5"/><rect fill="#BDB76B" height="5" style="stroke: #A80036; stroke-width: 1.5;" width="10" x="291.75" y="165.0938"/><text fill="#000000" font-family="sans-serif" font-size="14" font-style="italic" lengthAdjust="spacingAndGlyphs" textLength="99" x="306.75" y="145.4951">&lt;&lt;dataset&gt;&gt;</text><text fill="#000000" font-family="sans-serif" font-size="14" lengthAdjust="spacingAndGlyphs" textLength="79" x="316.75" y="161.792">JSON-LD file</text><rect fill="#BDB76B" filter="url(#f1)" height="52.5938" style="stroke: #A80036; stroke-width: 1.5;" width="152" x="6" y="122.5"/><rect fill="#BDB76B" height="5" style="stroke: #A80036; stroke-width: 1.5;" width="10" x="1" y="127.5"/><rect fill="#BDB76B" height="5" style="stroke: #A80036; stroke-width: 1.5;" width="10" x="1" y="165.0938"/><text fill="#000000" font-family="sans-serif" font-size="14" font-style="italic" lengthAdjust="spacingAndGlyphs" textLength="99" x="32.5" y="145.4951">&lt;&lt;dataset&gt;&gt;</text><text fill="#000000" font-family="sans-serif" font-size="14" lengthAdjust="spacingAndGlyphs" textLength="132" x="16" y="161.792">Aggregate JSON-LD</text><rect fill="#008000" filter="url(#f1)" height="52.5938" style="stroke: #A80036; stroke-width: 1.5;" width="158" x="452" y="122.5"/><rect fill="#008000" height="5" style="stroke: #A80036; stroke-width: 1.5;" width="10" x="447" y="127.5"/><rect fill="#008000" height="5" style="stroke: #A80036; stroke-width: 1.5;" width="10" x="447" y="165.0938"/><text fill="#000000" font-family="sans-serif" font-size="14" font-style="italic" lengthAdjust="spacingAndGlyphs" textLength="138" x="462" y="145.4951">&lt;&lt;configuration&gt;&gt;</text><text fill="#000000" font-family="sans-serif" font-size="14" lengthAdjust="spacingAndGlyphs" textLength="138" x="462" y="161.792">Format specification</text><path d="M555.561,44.08 C583.622,63.594 630.001,95.8454 663.658,119.2506 " fill="none" style="stroke: #A80036; stroke-width: 1.0; stroke-dasharray: 7.0,7.0;"/><polygon fill="#A80036" points="668.112,122.3477,663.0082,113.9244,664.0075,119.4923,658.4396,120.4916,668.112,122.3477" style="stroke: #A80036; stroke-width: 1.0;"/><text fill="#000000" font-family="sans-serif" font-size="13" lengthAdjust="spacingAndGlyphs" textLength="23" x="624" y="87.0669">use</text><path d="M531,44.08 C531,62.976 531,93.815 531,117.0006 " fill="none" style="stroke: #A80036; stroke-width: 1.0; stroke-dasharray: 7.0,7.0;"/><polygon fill="#A80036" points="531,122.1213,535,113.1213,531,117.1213,527,113.1213,531,122.1213" style="stroke: #A80036; stroke-width: 1.0;"/><text fill="#000000" font-family="sans-serif" font-size="13" lengthAdjust="spacingAndGlyphs" textLength="23" x="532" y="87.0669">use</text><path d="M506.298,44.08 C478.075,63.594 431.43,95.8454 397.58,119.2506 " fill="none" style="stroke: #A80036; stroke-width: 1.0; stroke-dasharray: 7.0,7.0;"/><polygon fill="#A80036" points="393.1,122.3477,402.7779,120.5206,397.213,119.5046,398.229,113.9398,393.1,122.3477" style="stroke: #A80036; stroke-width: 1.0;"/><text fill="#000000" font-family="sans-serif" font-size="13" lengthAdjust="spacingAndGlyphs" textLength="41" x="461" y="87.0669">create</text><path d="M335.693,44.143 C337.805,57.27 340.898,75.814 344,92 C345.581,100.2485 347.425,109.1505 349.187,117.3767 " fill="none" style="stroke: #A80036; stroke-width: 1.0; stroke-dasharray: 7.0,7.0;"/><polygon fill="#A80036" points="350.27,122.3995,352.283,112.7586,349.216,117.5118,344.4627,114.4449,350.27,122.3995" style="stroke: #A80036; stroke-width: 1.0;"/><text fill="#000000" font-family="sans-serif" font-size="13" lengthAdjust="spacingAndGlyphs" textLength="57" x="345" y="87.0669">HTTP get</text><path d="M318.038,44.08 C299.696,65.017 268.507,100.6194 247.829,124.2239 " fill="none" style="stroke: #A80036; stroke-width: 1.0;"/><polygon fill="#A80036" points="244.35,128.195,253.289,124.0605,247.6445,124.4338,247.2711,118.7893,244.35,128.195" style="stroke: #A80036; stroke-width: 1.0;"/><path d="M106.762,44.08 C131.187,65.19 172.861,101.2089 200.165,124.8067 " fill="none" style="stroke: #A80036; stroke-width: 1.0;"/><polygon fill="#A80036" points="204.085,128.195,199.8902,119.2841,200.3017,124.926,194.6598,125.3375,204.085,128.195" style="stroke: #A80036; stroke-width: 1.0;"/><path d="M82.876,44.297 C80.9781,53.128 78.9417,64.075 78,74 C76.6589,88.1343 77.2172,103.8333 78.2867,117.1217 " fill="none" style="stroke: #A80036; stroke-width: 1.0; stroke-dasharray: 7.0,7.0;"/><polygon fill="#A80036" points="78.7363,122.2768,81.9389,112.9632,78.3017,117.2957,73.9692,113.6585,78.7363,122.2768" style="stroke: #A80036; stroke-width: 1.0;"/><text fill="#000000" font-family="sans-serif" font-size="13" lengthAdjust="spacingAndGlyphs" textLength="41" x="79" y="87.0669">create</text><path d="M188.497,44.08 C168.726,63.373 136.195,95.116 112.281,118.4515 " fill="none" style="stroke: #A80036; stroke-width: 1.0;"/><polygon fill="#A80036" points="108.52,122.1213,117.7553,118.6993,112.0988,118.6296,112.1686,112.9732,108.52,122.1213" style="stroke: #A80036; stroke-width: 1.0;"/><text fill="#000000" font-family="sans-serif" font-size="13" lengthAdjust="spacingAndGlyphs" textLength="57" x="157" y="87.0669">HTTP get</text></g></svg>